<svg width="152" height="185" viewBox="0 0 152 185" fill="none" xmlns="http://www.w3.org/2000/svg">
<g filter="url(#filter0_ddddd_54_11542)">
<rect x="12" y="2" width="128" height="128" rx="20" fill="#3E3E3E"/>
<mask id="path-2-outside-1_54_11542" maskUnits="userSpaceOnUse" x="54" y="46" width="27" height="30" fill="black">
<rect fill="white" x="54" y="46" width="27" height="30"/>
<path d="M55.2901 75V47.56H70.9701C72.4101 47.56 73.7034 47.84 74.8501 48.4C76.0234 48.96 76.9434 49.7467 77.6101 50.76C78.2767 51.7733 78.6101 52.96 78.6101 54.32C78.6101 55.4133 78.4101 56.3867 78.0101 57.24C77.6101 58.0933 77.0634 58.8 76.3701 59.36C75.7034 59.92 74.9434 60.3333 74.0901 60.6V60.76C75.1034 60.9733 75.9967 61.3733 76.7701 61.96C77.5701 62.5467 78.1967 63.3067 78.6501 64.24C79.1301 65.1467 79.3701 66.2267 79.3701 67.48C79.3701 69.1333 78.9834 70.52 78.2101 71.64C77.4634 72.76 76.4634 73.6 75.2101 74.16C73.9567 74.72 72.5567 75 71.0101 75H55.2901ZM61.2501 70.12H69.8501C70.8367 70.12 71.6367 69.84 72.2501 69.28C72.8901 68.72 73.2101 67.8533 73.2101 66.68C73.2101 65.9867 73.0767 65.3867 72.8101 64.88C72.5434 64.3733 72.1434 63.9867 71.6101 63.72C71.0767 63.4267 70.3967 63.28 69.5701 63.28H61.2501V70.12ZM61.2501 58.64H69.1701C69.8901 58.64 70.4901 58.5067 70.9701 58.24C71.4767 57.9467 71.8501 57.5733 72.0901 57.12C72.3567 56.64 72.4901 56.0933 72.4901 55.48C72.4901 54.44 72.1967 53.6533 71.6101 53.12C71.0501 52.5867 70.3034 52.32 69.3701 52.32H61.2501V58.64Z"/>
</mask>
<path d="M55.2901 75V47.56H70.9701C72.4101 47.56 73.7034 47.84 74.8501 48.4C76.0234 48.96 76.9434 49.7467 77.6101 50.76C78.2767 51.7733 78.6101 52.96 78.6101 54.32C78.6101 55.4133 78.4101 56.3867 78.0101 57.24C77.6101 58.0933 77.0634 58.8 76.3701 59.36C75.7034 59.92 74.9434 60.3333 74.0901 60.6V60.76C75.1034 60.9733 75.9967 61.3733 76.7701 61.96C77.5701 62.5467 78.1967 63.3067 78.6501 64.24C79.1301 65.1467 79.3701 66.2267 79.3701 67.48C79.3701 69.1333 78.9834 70.52 78.2101 71.64C77.4634 72.76 76.4634 73.6 75.2101 74.16C73.9567 74.72 72.5567 75 71.0101 75H55.2901ZM61.2501 70.12H69.8501C70.8367 70.12 71.6367 69.84 72.2501 69.28C72.8901 68.72 73.2101 67.8533 73.2101 66.68C73.2101 65.9867 73.0767 65.3867 72.8101 64.88C72.5434 64.3733 72.1434 63.9867 71.6101 63.72C71.0767 63.4267 70.3967 63.28 69.5701 63.28H61.2501V70.12ZM61.2501 58.64H69.1701C69.8901 58.64 70.4901 58.5067 70.9701 58.24C71.4767 57.9467 71.8501 57.5733 72.0901 57.12C72.3567 56.64 72.4901 56.0933 72.4901 55.48C72.4901 54.44 72.1967 53.6533 71.6101 53.12C71.0501 52.5867 70.3034 52.32 69.3701 52.32H61.2501V58.64Z" fill="white"/>
<path d="M55.2901 75H54.2901V76H55.2901V75ZM55.2901 47.56V46.56H54.2901V47.56H55.2901ZM74.8501 48.4L74.4112 49.2986L74.4194 49.3025L74.8501 48.4ZM77.6101 50.76L76.7747 51.3096L76.7747 51.3096L77.6101 50.76ZM78.0101 57.24L78.9155 57.6644V57.6644L78.0101 57.24ZM76.3701 59.36L75.7417 58.5821L75.7343 58.5881L75.7269 58.5943L76.3701 59.36ZM74.0901 60.6L73.7918 59.6455L73.0901 59.8648V60.6H74.0901ZM74.0901 60.76H73.0901V61.5714L73.8841 61.7385L74.0901 60.76ZM76.7701 61.96L76.1657 62.7567L76.1722 62.7616L76.1787 62.7664L76.7701 61.96ZM78.6501 64.24L77.7506 64.6769L77.7582 64.6925L77.7663 64.7079L78.6501 64.24ZM78.2101 71.64L77.3872 71.0718L77.3826 71.0785L77.378 71.0853L78.2101 71.64ZM75.2101 74.16L74.8021 73.247L74.8021 73.247L75.2101 74.16ZM61.2501 70.12H60.2501V71.12H61.2501V70.12ZM72.2501 69.28L71.5916 68.5274L71.5836 68.5344L71.5758 68.5415L72.2501 69.28ZM72.8101 64.88L71.9252 65.3457L71.9252 65.3457L72.8101 64.88ZM71.6101 63.72L71.1282 64.5962L71.1453 64.6057L71.1629 64.6144L71.6101 63.72ZM61.2501 63.28V62.28H60.2501V63.28H61.2501ZM61.2501 58.64H60.2501V59.64H61.2501V58.64ZM70.9701 58.24L71.4557 59.1142L71.4635 59.1099L71.4711 59.1054L70.9701 58.24ZM72.0901 57.12L71.2159 56.6344L71.211 56.6432L71.2063 56.6521L72.0901 57.12ZM71.6101 53.12L70.9204 53.8441L70.9288 53.8521L70.9374 53.8599L71.6101 53.12ZM61.2501 52.32V51.32H60.2501V52.32H61.2501ZM56.2901 75V47.56H54.2901V75H56.2901ZM55.2901 48.56H70.9701V46.56H55.2901V48.56ZM70.9701 48.56C72.2777 48.56 73.4179 48.8134 74.4112 49.2986L75.2889 47.5014C73.989 46.8666 72.5425 46.56 70.9701 46.56V48.56ZM74.4194 49.3025C75.4404 49.7898 76.2154 50.4596 76.7747 51.3096L78.4455 50.2104C77.6714 49.0338 76.6064 48.1302 75.2808 47.4975L74.4194 49.3025ZM76.7747 51.3096C77.3212 52.1404 77.6101 53.1309 77.6101 54.32H79.6101C79.6101 52.7891 79.2322 51.4062 78.4455 50.2104L76.7747 51.3096ZM77.6101 54.32C77.6101 55.29 77.4331 56.1147 77.1046 56.8156L78.9155 57.6644C79.387 56.6586 79.6101 55.5366 79.6101 54.32H77.6101ZM77.1046 56.8156C76.7652 57.5397 76.3103 58.1228 75.7417 58.5821L76.9984 60.1379C77.8165 59.4772 78.455 58.647 78.9155 57.6644L77.1046 56.8156ZM75.7269 58.5943C75.1643 59.0669 74.5223 59.4172 73.7918 59.6455L74.3884 61.5545C75.3646 61.2494 76.2425 60.7731 77.0133 60.1257L75.7269 58.5943ZM73.0901 60.6V60.76H75.0901V60.6H73.0901ZM73.8841 61.7385C74.7627 61.9235 75.5179 62.2652 76.1657 62.7567L77.3745 61.1633C76.4756 60.4814 75.4442 60.0231 74.2961 59.7815L73.8841 61.7385ZM76.1787 62.7664C76.8414 63.2523 77.365 63.883 77.7506 64.6769L79.5496 63.8031C79.0285 62.7303 78.2988 61.841 77.3614 61.1536L76.1787 62.7664ZM77.7663 64.7079C78.1548 65.4418 78.3701 66.354 78.3701 67.48H80.3701C80.3701 66.0993 80.1053 64.8515 79.5339 63.7721L77.7663 64.7079ZM78.3701 67.48C78.3701 68.9746 78.0224 70.1519 77.3872 71.0718L79.033 72.2082C79.9445 70.8881 80.3701 69.2921 80.3701 67.48H78.3701ZM77.378 71.0853C76.7383 72.045 75.8867 72.7624 74.8021 73.247L75.618 75.073C77.0401 74.4376 78.1886 73.475 79.0421 72.1947L77.378 71.0853ZM74.8021 73.247C73.6925 73.7428 72.434 74 71.0101 74V76C72.6795 76 74.221 75.6972 75.618 75.073L74.8021 73.247ZM71.0101 74H55.2901V76H71.0101V74ZM61.2501 71.12H69.8501V69.12H61.2501V71.12ZM69.8501 71.12C71.0366 71.12 72.0931 70.7775 72.9244 70.0185L71.5758 68.5415C71.1804 68.9025 70.6369 69.12 69.8501 69.12V71.12ZM72.9086 70.0326C73.8388 69.2186 74.2101 68.0275 74.2101 66.68H72.2101C72.2101 67.6791 71.9413 68.2214 71.5916 68.5274L72.9086 70.0326ZM74.2101 66.68C74.2101 65.8583 74.0516 65.0918 73.695 64.4143L71.9252 65.3457C72.1019 65.6815 72.2101 66.115 72.2101 66.68H74.2101ZM73.695 64.4143C73.3267 63.7144 72.7695 63.1817 72.0573 62.8256L71.1629 64.6144C71.5173 64.7916 71.7602 65.0323 71.9252 65.3457L73.695 64.4143ZM72.092 62.8438C71.3676 62.4453 70.5075 62.28 69.5701 62.28V64.28C70.286 64.28 70.7859 64.408 71.1282 64.5962L72.092 62.8438ZM69.5701 62.28H61.2501V64.28H69.5701V62.28ZM60.2501 63.28V70.12H62.2501V63.28H60.2501ZM61.2501 59.64H69.1701V57.64H61.2501V59.64ZM69.1701 59.64C70.0088 59.64 70.788 59.4851 71.4557 59.1142L70.4844 57.3658C70.1922 57.5282 69.7714 57.64 69.1701 57.64V59.64ZM71.4711 59.1054C72.1166 58.7317 72.6342 58.2295 72.9739 57.5879L71.2063 56.6521C71.066 56.9172 70.8369 57.1616 70.469 57.3746L71.4711 59.1054ZM72.9642 57.6056C73.3228 56.9603 73.4901 56.243 73.4901 55.48H71.4901C71.4901 55.9437 71.3907 56.3197 71.2159 56.6344L72.9642 57.6056ZM73.4901 55.48C73.4901 54.2509 73.1378 53.1574 72.2828 52.3801L70.9374 53.8599C71.2557 54.1493 71.4901 54.6291 71.4901 55.48H73.4901ZM72.2997 52.3959C71.5167 51.6501 70.5039 51.32 69.3701 51.32V53.32C70.103 53.32 70.5835 53.5233 70.9204 53.8441L72.2997 52.3959ZM69.3701 51.32H61.2501V53.32H69.3701V51.32ZM60.2501 52.32V58.64H62.2501V52.32H60.2501Z" fill="#838383" mask="url(#path-2-outside-1_54_11542)"/>
<mask id="path-4-outside-2_54_11542" maskUnits="userSpaceOnUse" x="72" y="60" width="29" height="30" fill="black">
<rect fill="white" x="72" y="60" width="29" height="30"/>
<path d="M73.9306 89V61.56H88.9706C90.9973 61.56 92.6773 61.92 94.0106 62.64C95.3706 63.36 96.384 64.3733 97.0506 65.68C97.7173 66.96 98.0506 68.44 98.0506 70.12C98.0506 71.9067 97.6506 73.4933 96.8506 74.88C96.0506 76.24 94.8906 77.28 93.3706 78L98.9706 89H92.3706L87.5306 79H79.8906V89H73.9306ZM79.8906 74.28H88.1706C89.3706 74.28 90.304 73.92 90.9706 73.2C91.6373 72.4533 91.9706 71.4533 91.9706 70.2C91.9706 69.4 91.824 68.72 91.5306 68.16C91.2373 67.5733 90.8106 67.1333 90.2506 66.84C89.6906 66.5467 88.9973 66.4 88.1706 66.4H79.8906V74.28Z"/>
</mask>
<path d="M73.9306 89V61.56H88.9706C90.9973 61.56 92.6773 61.92 94.0106 62.64C95.3706 63.36 96.384 64.3733 97.0506 65.68C97.7173 66.96 98.0506 68.44 98.0506 70.12C98.0506 71.9067 97.6506 73.4933 96.8506 74.88C96.0506 76.24 94.8906 77.28 93.3706 78L98.9706 89H92.3706L87.5306 79H79.8906V89H73.9306ZM79.8906 74.28H88.1706C89.3706 74.28 90.304 73.92 90.9706 73.2C91.6373 72.4533 91.9706 71.4533 91.9706 70.2C91.9706 69.4 91.824 68.72 91.5306 68.16C91.2373 67.5733 90.8106 67.1333 90.2506 66.84C89.6906 66.5467 88.9973 66.4 88.1706 66.4H79.8906V74.28Z" fill="white"/>
<path d="M73.9306 89H72.9306V90H73.9306V89ZM73.9306 61.56V60.56H72.9306V61.56H73.9306ZM94.0106 62.64L93.5355 63.5199L93.5427 63.5238L94.0106 62.64ZM97.0506 65.68L96.1598 66.1345L96.1637 66.1419L97.0506 65.68ZM96.8506 74.88L97.7126 75.387L97.7168 75.3797L96.8506 74.88ZM93.3706 78L92.9425 77.0963L92.0127 77.5367L92.4795 78.4537L93.3706 78ZM98.9706 89V90H100.602L99.8618 88.5463L98.9706 89ZM92.3706 89L91.4705 89.4357L91.7437 90H92.3706V89ZM87.5306 79L88.4307 78.5643L88.1576 78H87.5306V79ZM79.8906 79V78H78.8906V79H79.8906ZM79.8906 89V90H80.8906V89H79.8906ZM79.8906 74.28H78.8906V75.28H79.8906V74.28ZM90.9706 73.2L91.7044 73.8794L91.7105 73.8728L91.7166 73.866L90.9706 73.2ZM91.5306 68.16L90.6362 68.6072L90.6404 68.6156L90.6448 68.624L91.5306 68.16ZM90.2506 66.84L90.7146 65.9542V65.9542L90.2506 66.84ZM79.8906 66.4V65.4H78.8906V66.4H79.8906ZM74.9306 89V61.56H72.9306V89H74.9306ZM73.9306 62.56H88.9706V60.56H73.9306V62.56ZM88.9706 62.56C90.8852 62.56 92.3891 62.9008 93.5355 63.5199L94.4858 61.7601C92.9655 60.9392 91.1094 60.56 88.9706 60.56V62.56ZM93.5427 63.5238C94.7304 64.1526 95.5914 65.0203 96.1599 66.1345L97.9414 65.2255C97.1765 63.7264 96.0108 62.5674 94.4785 61.7562L93.5427 63.5238ZM96.1637 66.1419C96.7448 67.2576 97.0506 68.5744 97.0506 70.12H99.0506C99.0506 68.3056 98.6898 66.6624 97.9375 65.2181L96.1637 66.1419ZM97.0506 70.12C97.0506 71.7521 96.6869 73.1626 95.9844 74.3803L97.7168 75.3797C98.6143 73.824 99.0506 72.0613 99.0506 70.12H97.0506ZM95.9887 74.373C95.2971 75.5486 94.294 76.4561 92.9425 77.0963L93.7987 78.9037C95.4872 78.1039 96.8041 76.9314 97.7126 75.387L95.9887 74.373ZM92.4795 78.4537L98.0795 89.4537L99.8618 88.5463L94.2618 77.5463L92.4795 78.4537ZM98.9706 88H92.3706V90H98.9706V88ZM93.2707 88.5643L88.4307 78.5643L86.6305 79.4357L91.4705 89.4357L93.2707 88.5643ZM87.5306 78H79.8906V80H87.5306V78ZM78.8906 79V89H80.8906V79H78.8906ZM79.8906 88H73.9306V90H79.8906V88ZM79.8906 75.28H88.1706V73.28H79.8906V75.28ZM88.1706 75.28C89.5823 75.28 90.8074 74.8482 91.7044 73.8794L90.2369 72.5206C89.8006 72.9918 89.159 73.28 88.1706 73.28V75.28ZM91.7166 73.866C92.5851 72.8932 92.9706 71.6347 92.9706 70.2H90.9706C90.9706 71.2719 90.6894 72.0135 90.2247 72.534L91.7166 73.866ZM92.9706 70.2C92.9706 69.2803 92.8021 68.4322 92.4165 67.696L90.6448 68.624C90.8458 69.0078 90.9706 69.5197 90.9706 70.2H92.9706ZM92.4251 67.7128C92.0416 66.9459 91.4679 66.3487 90.7146 65.9542L89.7866 67.7258C90.1533 67.9179 90.433 68.2008 90.6362 68.6072L92.4251 67.7128ZM90.7146 65.9542C89.9742 65.5663 89.1109 65.4 88.1706 65.4V67.4C88.8837 67.4 89.407 67.527 89.7866 67.7258L90.7146 65.9542ZM88.1706 65.4H79.8906V67.4H88.1706V65.4ZM78.8906 66.4V74.28H80.8906V66.4H78.8906Z" fill="#838383" mask="url(#path-4-outside-2_54_11542)"/>
</g>
<defs>
<filter id="filter0_ddddd_54_11542" x="0" y="0" width="152" height="185" filterUnits="userSpaceOnUse" color-interpolation-filters="sRGB">
<feFlood flood-opacity="0" result="BackgroundImageFix"/>
<feColorMatrix in="SourceAlpha" type="matrix" values="0 0 0 0 0 0 0 0 0 0 0 0 0 0 0 0 0 0 127 0" result="hardAlpha"/>
<feOffset dy="2"/>
<feGaussianBlur stdDeviation="2"/>
<feColorMatrix type="matrix" values="0 0 0 0 0 0 0 0 0 0 0 0 0 0 0 0 0 0 0.34 0"/>
<feBlend mode="normal" in2="BackgroundImageFix" result="effect1_dropShadow_54_11542"/>
<feColorMatrix in="SourceAlpha" type="matrix" values="0 0 0 0 0 0 0 0 0 0 0 0 0 0 0 0 0 0 127 0" result="hardAlpha"/>
<feOffset dy="7"/>
<feGaussianBlur stdDeviation="3.5"/>
<feColorMatrix type="matrix" values="0 0 0 0 0 0 0 0 0 0 0 0 0 0 0 0 0 0 0.3 0"/>
<feBlend mode="normal" in2="effect1_dropShadow_54_11542" result="effect2_dropShadow_54_11542"/>
<feColorMatrix in="SourceAlpha" type="matrix" values="0 0 0 0 0 0 0 0 0 0 0 0 0 0 0 0 0 0 127 0" result="hardAlpha"/>
<feOffset dy="16"/>
<feGaussianBlur stdDeviation="4.5"/>
<feColorMatrix type="matrix" values="0 0 0 0 0 0 0 0 0 0 0 0 0 0 0 0 0 0 0.18 0"/>
<feBlend mode="normal" in2="effect2_dropShadow_54_11542" result="effect3_dropShadow_54_11542"/>
<feColorMatrix in="SourceAlpha" type="matrix" values="0 0 0 0 0 0 0 0 0 0 0 0 0 0 0 0 0 0 127 0" result="hardAlpha"/>
<feOffset dy="28"/>
<feGaussianBlur stdDeviation="5.5"/>
<feColorMatrix type="matrix" values="0 0 0 0 0 0 0 0 0 0 0 0 0 0 0 0 0 0 0.05 0"/>
<feBlend mode="normal" in2="effect3_dropShadow_54_11542" result="effect4_dropShadow_54_11542"/>
<feColorMatrix in="SourceAlpha" type="matrix" values="0 0 0 0 0 0 0 0 0 0 0 0 0 0 0 0 0 0 127 0" result="hardAlpha"/>
<feOffset dy="43"/>
<feGaussianBlur stdDeviation="6"/>
<feColorMatrix type="matrix" values="0 0 0 0 0 0 0 0 0 0 0 0 0 0 0 0 0 0 0.01 0"/>
<feBlend mode="normal" in2="effect4_dropShadow_54_11542" result="effect5_dropShadow_54_11542"/>
<feBlend mode="normal" in="SourceGraphic" in2="effect5_dropShadow_54_11542" result="shape"/>
</filter>
</defs>
</svg>
